<mxfile host="65bd71144e">
    <diagram id="HRNo9VWZhBqnbf7-p5BJ" name="Page-1">
        <mxGraphModel dx="622" dy="321" grid="1" gridSize="10" guides="1" tooltips="1" connect="1" arrows="1" fold="1" page="1" pageScale="1" pageWidth="827" pageHeight="1169" math="0" shadow="0">
            <root>
                <mxCell id="0"/>
                <mxCell id="1" parent="0"/>
                <mxCell id="sQt6gTw2bSlcSvtIhdvF-1" style="edgeStyle=orthogonalEdgeStyle;rounded=0;orthogonalLoop=1;jettySize=auto;html=1;startArrow=open;startFill=0;endArrow=open;endFill=0;strokeWidth=2;strokeColor=#808080;" edge="1" parent="1" source="sQt6gTw2bSlcSvtIhdvF-19" target="sQt6gTw2bSlcSvtIhdvF-24">
                    <mxGeometry relative="1" as="geometry">
                        <Array as="points">
                            <mxPoint x="170" y="467"/>
                            <mxPoint x="170" y="382"/>
                        </Array>
                    </mxGeometry>
                </mxCell>
                <mxCell id="sQt6gTw2bSlcSvtIhdvF-2" style="edgeStyle=orthogonalEdgeStyle;rounded=0;orthogonalLoop=1;jettySize=auto;html=1;startArrow=open;startFill=0;endArrow=open;endFill=0;strokeWidth=2;strokeColor=#808080;" edge="1" parent="1" source="sQt6gTw2bSlcSvtIhdvF-20" target="sQt6gTw2bSlcSvtIhdvF-21">
                    <mxGeometry relative="1" as="geometry">
                        <Array as="points">
                            <mxPoint x="160" y="247"/>
                            <mxPoint x="160" y="107"/>
                        </Array>
                    </mxGeometry>
                </mxCell>
                <mxCell id="sQt6gTw2bSlcSvtIhdvF-3" style="edgeStyle=orthogonalEdgeStyle;rounded=0;orthogonalLoop=1;jettySize=auto;html=1;startArrow=open;startFill=0;endArrow=open;endFill=0;strokeWidth=2;strokeColor=#808080;" edge="1" parent="1" source="sQt6gTw2bSlcSvtIhdvF-20" target="sQt6gTw2bSlcSvtIhdvF-24">
                    <mxGeometry relative="1" as="geometry">
                        <Array as="points">
                            <mxPoint x="171" y="287"/>
                            <mxPoint x="171" y="367"/>
                        </Array>
                    </mxGeometry>
                </mxCell>
                <mxCell id="sQt6gTw2bSlcSvtIhdvF-4" style="edgeStyle=orthogonalEdgeStyle;rounded=0;orthogonalLoop=1;jettySize=auto;html=1;startArrow=open;startFill=0;endArrow=open;endFill=0;strokeWidth=2;strokeColor=#808080;" edge="1" parent="1" source="sQt6gTw2bSlcSvtIhdvF-21" target="sQt6gTw2bSlcSvtIhdvF-22">
                    <mxGeometry relative="1" as="geometry">
                        <Array as="points">
                            <mxPoint x="390" y="107"/>
                            <mxPoint x="390" y="107"/>
                        </Array>
                    </mxGeometry>
                </mxCell>
                <mxCell id="sQt6gTw2bSlcSvtIhdvF-5" style="edgeStyle=orthogonalEdgeStyle;rounded=0;orthogonalLoop=1;jettySize=auto;html=1;startArrow=open;startFill=0;endArrow=open;endFill=0;strokeWidth=2;strokeColor=#808080;" edge="1" parent="1" source="sQt6gTw2bSlcSvtIhdvF-23" target="sQt6gTw2bSlcSvtIhdvF-24">
                    <mxGeometry relative="1" as="geometry"/>
                </mxCell>
                <mxCell id="sQt6gTw2bSlcSvtIhdvF-6" style="edgeStyle=orthogonalEdgeStyle;rounded=0;orthogonalLoop=1;jettySize=auto;html=1;startArrow=open;startFill=0;endArrow=open;endFill=0;strokeWidth=2;strokeColor=#808080;" edge="1" parent="1" source="sQt6gTw2bSlcSvtIhdvF-24" target="sQt6gTw2bSlcSvtIhdvF-25">
                    <mxGeometry relative="1" as="geometry">
                        <Array as="points">
                            <mxPoint x="370" y="397"/>
                            <mxPoint x="370" y="397"/>
                        </Array>
                    </mxGeometry>
                </mxCell>
                <mxCell id="sQt6gTw2bSlcSvtIhdvF-7" style="edgeStyle=orthogonalEdgeStyle;rounded=0;orthogonalLoop=1;jettySize=auto;html=1;startArrow=open;startFill=0;endArrow=open;endFill=0;strokeWidth=2;strokeColor=#808080;" edge="1" parent="1" source="sQt6gTw2bSlcSvtIhdvF-25" target="sQt6gTw2bSlcSvtIhdvF-26">
                    <mxGeometry relative="1" as="geometry">
                        <Array as="points">
                            <mxPoint x="559.5" y="357.5"/>
                            <mxPoint x="559.5" y="58.5"/>
                        </Array>
                    </mxGeometry>
                </mxCell>
                <mxCell id="sQt6gTw2bSlcSvtIhdvF-8" style="edgeStyle=orthogonalEdgeStyle;rounded=0;orthogonalLoop=1;jettySize=auto;html=1;startArrow=open;startFill=0;endArrow=open;endFill=0;strokeWidth=2;strokeColor=#808080;" edge="1" parent="1" source="sQt6gTw2bSlcSvtIhdvF-25" target="sQt6gTw2bSlcSvtIhdvF-27">
                    <mxGeometry relative="1" as="geometry">
                        <Array as="points">
                            <mxPoint x="580" y="367"/>
                            <mxPoint x="580" y="168"/>
                        </Array>
                    </mxGeometry>
                </mxCell>
                <mxCell id="sQt6gTw2bSlcSvtIhdvF-9" style="edgeStyle=orthogonalEdgeStyle;rounded=0;orthogonalLoop=1;jettySize=auto;html=1;startArrow=open;startFill=0;endArrow=open;endFill=0;strokeWidth=2;strokeColor=#808080;" edge="1" parent="1" source="sQt6gTw2bSlcSvtIhdvF-25" target="sQt6gTw2bSlcSvtIhdvF-29">
                    <mxGeometry relative="1" as="geometry">
                        <Array as="points">
                            <mxPoint x="619.5" y="377.5"/>
                            <mxPoint x="619.5" y="285.5"/>
                        </Array>
                    </mxGeometry>
                </mxCell>
                <mxCell id="sQt6gTw2bSlcSvtIhdvF-10" style="edgeStyle=orthogonalEdgeStyle;rounded=0;orthogonalLoop=1;jettySize=auto;html=1;startArrow=open;startFill=0;endArrow=open;endFill=0;strokeWidth=2;strokeColor=#808080;" edge="1" parent="1" source="sQt6gTw2bSlcSvtIhdvF-25" target="sQt6gTw2bSlcSvtIhdvF-30">
                    <mxGeometry relative="1" as="geometry">
                        <Array as="points">
                            <mxPoint x="620" y="387"/>
                            <mxPoint x="620" y="421"/>
                        </Array>
                    </mxGeometry>
                </mxCell>
                <mxCell id="sQt6gTw2bSlcSvtIhdvF-11" style="edgeStyle=orthogonalEdgeStyle;rounded=0;orthogonalLoop=1;jettySize=auto;html=1;startArrow=open;startFill=0;endArrow=open;endFill=0;strokeWidth=2;strokeColor=#808080;" edge="1" parent="1" source="sQt6gTw2bSlcSvtIhdvF-25" target="sQt6gTw2bSlcSvtIhdvF-31">
                    <mxGeometry relative="1" as="geometry">
                        <Array as="points">
                            <mxPoint x="600" y="397"/>
                            <mxPoint x="600" y="536"/>
                        </Array>
                    </mxGeometry>
                </mxCell>
                <mxCell id="sQt6gTw2bSlcSvtIhdvF-12" style="edgeStyle=orthogonalEdgeStyle;rounded=0;orthogonalLoop=1;jettySize=auto;html=1;startArrow=open;startFill=0;endArrow=open;endFill=0;strokeWidth=2;strokeColor=#808080;" edge="1" parent="1" source="sQt6gTw2bSlcSvtIhdvF-25" target="sQt6gTw2bSlcSvtIhdvF-32">
                    <mxGeometry relative="1" as="geometry">
                        <Array as="points">
                            <mxPoint x="580" y="407"/>
                            <mxPoint x="580" y="659"/>
                        </Array>
                    </mxGeometry>
                </mxCell>
                <mxCell id="sQt6gTw2bSlcSvtIhdvF-13" style="edgeStyle=orthogonalEdgeStyle;rounded=0;orthogonalLoop=1;jettySize=auto;html=1;startArrow=open;startFill=0;endArrow=open;endFill=0;strokeWidth=2;strokeColor=#808080;" edge="1" parent="1" source="sQt6gTw2bSlcSvtIhdvF-25" target="sQt6gTw2bSlcSvtIhdvF-33">
                    <mxGeometry relative="1" as="geometry">
                        <Array as="points">
                            <mxPoint x="559.5" y="417.5"/>
                            <mxPoint x="559.5" y="735.5"/>
                        </Array>
                    </mxGeometry>
                </mxCell>
                <mxCell id="sQt6gTw2bSlcSvtIhdvF-14" value="" style="edgeStyle=orthogonalEdgeStyle;rounded=0;orthogonalLoop=1;jettySize=auto;html=1;startArrow=none;startFill=0;endArrow=open;endFill=0;strokeWidth=2;strokeColor=#808080;" edge="1" parent="1" source="sQt6gTw2bSlcSvtIhdvF-27" target="sQt6gTw2bSlcSvtIhdvF-28">
                    <mxGeometry relative="1" as="geometry"/>
                </mxCell>
                <mxCell id="sQt6gTw2bSlcSvtIhdvF-15" style="edgeStyle=orthogonalEdgeStyle;rounded=0;orthogonalLoop=1;jettySize=auto;html=1;startArrow=open;startFill=0;endArrow=open;endFill=0;strokeWidth=2;strokeColor=#808080;" edge="1" parent="1" source="sQt6gTw2bSlcSvtIhdvF-20" target="sQt6gTw2bSlcSvtIhdvF-21">
                    <mxGeometry relative="1" as="geometry">
                        <mxPoint x="129.78464634847592" y="267.17647058823536" as="sourcePoint"/>
                        <mxPoint x="282" y="129.52941176470586" as="targetPoint"/>
                        <Array as="points">
                            <mxPoint x="171" y="267"/>
                            <mxPoint x="171" y="127"/>
                        </Array>
                    </mxGeometry>
                </mxCell>
                <mxCell id="sQt6gTw2bSlcSvtIhdvF-16" style="edgeStyle=orthogonalEdgeStyle;rounded=0;orthogonalLoop=1;jettySize=auto;html=1;startArrow=open;startFill=0;endArrow=open;endFill=0;strokeWidth=2;strokeColor=#808080;" edge="1" parent="1" source="sQt6gTw2bSlcSvtIhdvF-23" target="sQt6gTw2bSlcSvtIhdvF-24">
                    <mxGeometry relative="1" as="geometry">
                        <mxPoint x="360" y="265.72413793103453" as="sourcePoint"/>
                        <mxPoint x="277.9655172413793" y="353" as="targetPoint"/>
                        <Array as="points">
                            <mxPoint x="389" y="357"/>
                        </Array>
                    </mxGeometry>
                </mxCell>
                <mxCell id="sQt6gTw2bSlcSvtIhdvF-17" style="edgeStyle=orthogonalEdgeStyle;rounded=0;orthogonalLoop=1;jettySize=auto;html=1;startArrow=open;startFill=0;endArrow=open;endFill=0;strokeWidth=2;strokeColor=#808080;" edge="1" parent="1" source="sQt6gTw2bSlcSvtIhdvF-24" target="sQt6gTw2bSlcSvtIhdvF-25">
                    <mxGeometry relative="1" as="geometry">
                        <mxPoint x="317" y="392" as="sourcePoint"/>
                        <mxPoint x="450" y="392" as="targetPoint"/>
                        <Array as="points">
                            <mxPoint x="370" y="377"/>
                            <mxPoint x="370" y="377"/>
                        </Array>
                    </mxGeometry>
                </mxCell>
                <mxCell id="sQt6gTw2bSlcSvtIhdvF-18" style="edgeStyle=orthogonalEdgeStyle;rounded=0;orthogonalLoop=1;jettySize=auto;html=1;startArrow=open;startFill=0;endArrow=open;endFill=0;strokeWidth=2;strokeColor=#808080;" edge="1" parent="1" source="sQt6gTw2bSlcSvtIhdvF-21" target="sQt6gTw2bSlcSvtIhdvF-22">
                    <mxGeometry relative="1" as="geometry">
                        <mxPoint x="360" y="117" as="sourcePoint"/>
                        <mxPoint x="438" y="117" as="targetPoint"/>
                        <Array as="points">
                            <mxPoint x="390" y="127"/>
                            <mxPoint x="390" y="127"/>
                        </Array>
                    </mxGeometry>
                </mxCell>
                <mxCell id="sQt6gTw2bSlcSvtIhdvF-19" value="data lake CLI" style="outlineConnect=0;gradientColor=none;fontColor=#545B64;strokeColor=none;fillColor=#879196;dashed=0;verticalLabelPosition=bottom;verticalAlign=top;align=center;html=1;fontSize=12;fontStyle=0;aspect=fixed;shape=mxgraph.aws4.illustration_desktop;pointerEvents=1;labelBackgroundColor=#ffffff;" vertex="1" parent="1">
                    <mxGeometry x="20" y="421" width="100" height="91" as="geometry"/>
                </mxCell>
                <mxCell id="sQt6gTw2bSlcSvtIhdvF-20" value="data lake console" style="outlineConnect=0;gradientColor=none;fontColor=#545B64;strokeColor=none;fillColor=#879196;dashed=0;verticalLabelPosition=bottom;verticalAlign=top;align=center;html=1;fontSize=12;fontStyle=0;aspect=fixed;shape=mxgraph.aws4.illustration_notification;pointerEvents=1;labelBackgroundColor=#ffffff;" vertex="1" parent="1">
                    <mxGeometry x="20" y="227" width="100" height="81" as="geometry"/>
                </mxCell>
                <mxCell id="sQt6gTw2bSlcSvtIhdvF-21" value="Amazon &lt;br&gt;Cognito" style="outlineConnect=0;fontColor=#232F3E;gradientColor=#F54749;gradientDirection=north;fillColor=#C7131F;strokeColor=#ffffff;dashed=0;verticalLabelPosition=bottom;verticalAlign=top;align=center;html=1;fontSize=12;fontStyle=0;aspect=fixed;shape=mxgraph.aws4.resourceIcon;resIcon=mxgraph.aws4.cognito;labelBackgroundColor=#ffffff;" vertex="1" parent="1">
                    <mxGeometry x="272" y="80" width="78" height="78" as="geometry"/>
                </mxCell>
                <mxCell id="sQt6gTw2bSlcSvtIhdvF-22" value="Active&lt;br&gt;Directory" style="outlineConnect=0;fontColor=#232F3E;gradientColor=#F54749;gradientDirection=north;fillColor=#C7131F;strokeColor=#ffffff;dashed=0;verticalLabelPosition=bottom;verticalAlign=top;align=center;html=1;fontSize=12;fontStyle=0;aspect=fixed;shape=mxgraph.aws4.resourceIcon;resIcon=mxgraph.aws4.cloud_directory;labelBackgroundColor=#ffffff;" vertex="1" parent="1">
                    <mxGeometry x="428" y="80" width="78" height="78" as="geometry"/>
                </mxCell>
                <mxCell id="sQt6gTw2bSlcSvtIhdvF-23" value="Lambda" style="outlineConnect=0;fontColor=#232F3E;gradientColor=#F78E04;gradientDirection=north;fillColor=#D05C17;strokeColor=#ffffff;dashed=0;verticalLabelPosition=bottom;verticalAlign=top;align=center;html=1;fontSize=12;fontStyle=0;aspect=fixed;shape=mxgraph.aws4.resourceIcon;resIcon=mxgraph.aws4.lambda;labelBackgroundColor=#ffffff;spacingTop=3;" vertex="1" parent="1">
                    <mxGeometry x="350" y="217" width="78" height="78" as="geometry"/>
                </mxCell>
                <mxCell id="sQt6gTw2bSlcSvtIhdvF-24" value="Amazon API&lt;br&gt;Gateway&lt;br&gt;" style="outlineConnect=0;fontColor=#232F3E;gradientColor=#945DF2;gradientDirection=north;fillColor=#5A30B5;strokeColor=#ffffff;dashed=0;verticalLabelPosition=bottom;verticalAlign=top;align=center;html=1;fontSize=12;fontStyle=0;aspect=fixed;shape=mxgraph.aws4.resourceIcon;resIcon=mxgraph.aws4.api_gateway;labelBackgroundColor=#ffffff;" vertex="1" parent="1">
                    <mxGeometry x="229" y="343" width="78" height="78" as="geometry"/>
                </mxCell>
                <mxCell id="sQt6gTw2bSlcSvtIhdvF-25" value="Lambda&lt;br&gt;function" style="outlineConnect=0;fontColor=#232F3E;gradientColor=none;fillColor=#D05C17;strokeColor=none;dashed=0;verticalLabelPosition=bottom;verticalAlign=top;align=center;html=1;fontSize=12;fontStyle=0;aspect=fixed;pointerEvents=1;shape=mxgraph.aws4.lambda_function;labelBackgroundColor=#ffffff;" vertex="1" parent="1">
                    <mxGeometry x="440" y="343" width="78" height="78" as="geometry"/>
                </mxCell>
                <mxCell id="sQt6gTw2bSlcSvtIhdvF-26" value="Amazon S3" style="outlineConnect=0;fontColor=#232F3E;gradientColor=#60A337;gradientDirection=north;fillColor=#277116;strokeColor=#ffffff;dashed=0;verticalLabelPosition=bottom;verticalAlign=top;align=center;html=1;fontSize=12;fontStyle=0;aspect=fixed;shape=mxgraph.aws4.resourceIcon;resIcon=mxgraph.aws4.s3;labelBackgroundColor=#ffffff;" vertex="1" parent="1">
                    <mxGeometry x="660.0000000000002" y="20" width="78" height="78" as="geometry"/>
                </mxCell>
                <mxCell id="sQt6gTw2bSlcSvtIhdvF-27" value="AWS Glue" style="outlineConnect=0;fontColor=#232F3E;gradientColor=#945DF2;gradientDirection=north;fillColor=#5A30B5;strokeColor=#ffffff;dashed=0;verticalLabelPosition=bottom;verticalAlign=top;align=center;html=1;fontSize=12;fontStyle=0;aspect=fixed;shape=mxgraph.aws4.resourceIcon;resIcon=mxgraph.aws4.glue;labelBackgroundColor=#ffffff;" vertex="1" parent="1">
                    <mxGeometry x="660.0000000000002" y="129" width="78" height="78" as="geometry"/>
                </mxCell>
                <mxCell id="sQt6gTw2bSlcSvtIhdvF-28" value="Amazon Athena" style="outlineConnect=0;fontColor=#232F3E;gradientColor=#945DF2;gradientDirection=north;fillColor=#5A30B5;strokeColor=#ffffff;dashed=0;verticalLabelPosition=bottom;verticalAlign=top;align=center;html=1;fontSize=12;fontStyle=0;aspect=fixed;shape=mxgraph.aws4.resourceIcon;resIcon=mxgraph.aws4.athena;labelBackgroundColor=#ffffff;" vertex="1" parent="1">
                    <mxGeometry x="790" y="129" width="78" height="78" as="geometry"/>
                </mxCell>
                <mxCell id="sQt6gTw2bSlcSvtIhdvF-29" value="Amazon&lt;br&gt;DynamoDB&lt;br&gt;" style="outlineConnect=0;fontColor=#232F3E;gradientColor=#4D72F3;gradientDirection=north;fillColor=#3334B9;strokeColor=#ffffff;dashed=0;verticalLabelPosition=bottom;verticalAlign=top;align=center;html=1;fontSize=12;fontStyle=0;aspect=fixed;shape=mxgraph.aws4.resourceIcon;resIcon=mxgraph.aws4.dynamodb;labelBackgroundColor=#ffffff;spacingTop=5;" vertex="1" parent="1">
                    <mxGeometry x="660.0000000000002" y="248" width="78" height="78" as="geometry"/>
                </mxCell>
                <mxCell id="sQt6gTw2bSlcSvtIhdvF-30" value="Amazon&lt;br&gt;ElasticSearch&lt;br&gt;Service&lt;br&gt;" style="outlineConnect=0;fontColor=#232F3E;gradientColor=#945DF2;gradientDirection=north;fillColor=#5A30B5;strokeColor=#ffffff;dashed=0;verticalLabelPosition=bottom;verticalAlign=top;align=center;html=1;fontSize=12;fontStyle=0;aspect=fixed;shape=mxgraph.aws4.resourceIcon;resIcon=mxgraph.aws4.elasticsearch_service;labelBackgroundColor=#ffffff;" vertex="1" parent="1">
                    <mxGeometry x="660.0000000000002" y="382" width="78" height="78" as="geometry"/>
                </mxCell>
                <mxCell id="sQt6gTw2bSlcSvtIhdvF-31" value="Amazon&lt;br&gt;CloudWatch&lt;br&gt;" style="outlineConnect=0;fontColor=#232F3E;gradientColor=#F34482;gradientDirection=north;fillColor=#BC1356;strokeColor=#ffffff;dashed=0;verticalLabelPosition=bottom;verticalAlign=top;align=center;html=1;fontSize=12;fontStyle=0;aspect=fixed;shape=mxgraph.aws4.resourceIcon;resIcon=mxgraph.aws4.cloudwatch;labelBackgroundColor=#ffffff;" vertex="1" parent="1">
                    <mxGeometry x="660.0000000000002" y="497" width="78" height="78" as="geometry"/>
                </mxCell>
                <mxCell id="sQt6gTw2bSlcSvtIhdvF-32" value="IAM Roles" style="outlineConnect=0;fontColor=#232F3E;gradientColor=none;fillColor=#C7131F;strokeColor=none;dashed=0;verticalLabelPosition=bottom;verticalAlign=top;align=center;html=1;fontSize=12;fontStyle=0;aspect=fixed;pointerEvents=1;shape=mxgraph.aws4.role;labelBackgroundColor=#ffffff;" vertex="1" parent="1">
                    <mxGeometry x="660.0000000000002" y="637" width="78" height="44" as="geometry"/>
                </mxCell>
                <mxCell id="sQt6gTw2bSlcSvtIhdvF-33" value="Amazon&lt;br&gt;CloudWatch Logs&lt;br&gt;" style="outlineConnect=0;fontColor=#232F3E;gradientColor=none;gradientDirection=north;fillColor=#F34482;strokeColor=none;dashed=0;verticalLabelPosition=bottom;verticalAlign=top;align=center;html=1;fontSize=12;fontStyle=0;aspect=fixed;shape=mxgraph.aws4.cloudwatch;labelBackgroundColor=#ffffff;" vertex="1" parent="1">
                    <mxGeometry x="660.0000000000002" y="707" width="78" height="78" as="geometry"/>
                </mxCell>
            </root>
        </mxGraphModel>
    </diagram>
    <diagram id="ijb2ECloDFctZH3D239Z" name="ページ2">
        <mxGraphModel dx="622" dy="321" grid="1" gridSize="10" guides="1" tooltips="1" connect="1" arrows="1" fold="1" page="1" pageScale="1" pageWidth="827" pageHeight="1169" math="0" shadow="0">
            <root>
                <mxCell id="0"/>
                <mxCell id="1" parent="0"/>
                <mxCell id="LH6c0w0BI3tx8zZfQcEY-1" value="" style="rounded=0;whiteSpace=wrap;html=1;labelBackgroundColor=none;fillColor=none;dashed=1;container=1;pointerEvents=0;collapsible=0;recursiveResize=0;" vertex="1" parent="1">
                    <mxGeometry x="310" y="230" width="480" height="430" as="geometry"/>
                </mxCell>
                <mxCell id="LH6c0w0BI3tx8zZfQcEY-2" value="AWS Cloud" style="points=[[0,0],[0.25,0],[0.5,0],[0.75,0],[1,0],[1,0.25],[1,0.5],[1,0.75],[1,1],[0.75,1],[0.5,1],[0.25,1],[0,1],[0,0.75],[0,0.5],[0,0.25]];outlineConnect=0;gradientColor=none;html=1;whiteSpace=wrap;fontSize=12;fontStyle=0;shape=mxgraph.aws4.group;grIcon=mxgraph.aws4.group_aws_cloud_alt;strokeColor=#232F3E;fillColor=none;verticalAlign=top;align=left;spacingLeft=30;fontColor=#232F3E;dashed=0;labelBackgroundColor=#ffffff;container=1;pointerEvents=0;collapsible=0;recursiveResize=0;" vertex="1" parent="1">
                    <mxGeometry x="20" y="20" width="780" height="650" as="geometry"/>
                </mxCell>
                <mxCell id="LH6c0w0BI3tx8zZfQcEY-3" value="AWS Cloud" style="points=[[0,0],[0.25,0],[0.5,0],[0.75,0],[1,0],[1,0.25],[1,0.5],[1,0.75],[1,1],[0.75,1],[0.5,1],[0.25,1],[0,1],[0,0.75],[0,0.5],[0,0.25]];outlineConnect=0;gradientColor=none;html=1;whiteSpace=wrap;fontSize=12;fontStyle=0;shape=mxgraph.aws4.group;grIcon=mxgraph.aws4.group_aws_cloud_alt;strokeColor=#232F3E;fillColor=none;verticalAlign=top;align=left;spacingLeft=30;fontColor=#232F3E;dashed=0;labelBackgroundColor=#ffffff;container=1;pointerEvents=0;collapsible=0;recursiveResize=0;" vertex="1" parent="1">
                    <mxGeometry x="820" y="20" width="270" height="650" as="geometry"/>
                </mxCell>
                <mxCell id="LH6c0w0BI3tx8zZfQcEY-4" value="" style="edgeStyle=orthogonalEdgeStyle;rounded=0;orthogonalLoop=1;jettySize=auto;html=1;endArrow=open;endFill=0;strokeWidth=2;" edge="1" parent="1" source="LH6c0w0BI3tx8zZfQcEY-17" target="LH6c0w0BI3tx8zZfQcEY-18">
                    <mxGeometry relative="1" as="geometry"/>
                </mxCell>
                <mxCell id="LH6c0w0BI3tx8zZfQcEY-5" value="" style="edgeStyle=orthogonalEdgeStyle;rounded=0;orthogonalLoop=1;jettySize=auto;html=1;endArrow=open;endFill=0;strokeWidth=2;" edge="1" parent="1" source="LH6c0w0BI3tx8zZfQcEY-18" target="LH6c0w0BI3tx8zZfQcEY-20">
                    <mxGeometry relative="1" as="geometry">
                        <Array as="points">
                            <mxPoint x="218" y="290"/>
                        </Array>
                    </mxGeometry>
                </mxCell>
                <mxCell id="LH6c0w0BI3tx8zZfQcEY-6" style="edgeStyle=orthogonalEdgeStyle;rounded=0;orthogonalLoop=1;jettySize=auto;html=1;endArrow=open;endFill=0;strokeWidth=2;" edge="1" parent="1" source="LH6c0w0BI3tx8zZfQcEY-18" target="LH6c0w0BI3tx8zZfQcEY-19">
                    <mxGeometry relative="1" as="geometry"/>
                </mxCell>
                <mxCell id="LH6c0w0BI3tx8zZfQcEY-7" style="edgeStyle=orthogonalEdgeStyle;rounded=0;orthogonalLoop=1;jettySize=auto;html=1;endArrow=open;endFill=0;strokeWidth=2;" edge="1" parent="1" source="LH6c0w0BI3tx8zZfQcEY-19" target="LH6c0w0BI3tx8zZfQcEY-25">
                    <mxGeometry relative="1" as="geometry"/>
                </mxCell>
                <mxCell id="LH6c0w0BI3tx8zZfQcEY-8" value="" style="edgeStyle=orthogonalEdgeStyle;rounded=0;orthogonalLoop=1;jettySize=auto;html=1;endArrow=open;endFill=0;strokeWidth=2;" edge="1" parent="1" source="LH6c0w0BI3tx8zZfQcEY-20" target="LH6c0w0BI3tx8zZfQcEY-21">
                    <mxGeometry relative="1" as="geometry"/>
                </mxCell>
                <mxCell id="LH6c0w0BI3tx8zZfQcEY-9" value="" style="edgeStyle=orthogonalEdgeStyle;rounded=0;orthogonalLoop=1;jettySize=auto;html=1;endArrow=open;endFill=0;strokeWidth=2;" edge="1" parent="1" source="LH6c0w0BI3tx8zZfQcEY-21" target="LH6c0w0BI3tx8zZfQcEY-22">
                    <mxGeometry relative="1" as="geometry"/>
                </mxCell>
                <mxCell id="LH6c0w0BI3tx8zZfQcEY-10" value="" style="edgeStyle=orthogonalEdgeStyle;rounded=0;orthogonalLoop=1;jettySize=auto;html=1;endArrow=open;endFill=0;strokeWidth=2;" edge="1" parent="1" source="LH6c0w0BI3tx8zZfQcEY-22" target="LH6c0w0BI3tx8zZfQcEY-23">
                    <mxGeometry relative="1" as="geometry"/>
                </mxCell>
                <mxCell id="LH6c0w0BI3tx8zZfQcEY-11" style="edgeStyle=orthogonalEdgeStyle;rounded=0;orthogonalLoop=1;jettySize=auto;html=1;endArrow=open;endFill=0;strokeWidth=2;" edge="1" parent="1" source="LH6c0w0BI3tx8zZfQcEY-23" target="LH6c0w0BI3tx8zZfQcEY-26">
                    <mxGeometry relative="1" as="geometry">
                        <Array as="points">
                            <mxPoint x="732" y="420"/>
                        </Array>
                    </mxGeometry>
                </mxCell>
                <mxCell id="LH6c0w0BI3tx8zZfQcEY-12" value="Monitor template" style="edgeStyle=orthogonalEdgeStyle;rounded=0;orthogonalLoop=1;jettySize=auto;html=1;endArrow=open;endFill=0;strokeWidth=2;" edge="1" parent="1" source="LH6c0w0BI3tx8zZfQcEY-24" target="LH6c0w0BI3tx8zZfQcEY-21">
                    <mxGeometry x="0.1208" y="-10" relative="1" as="geometry">
                        <Array as="points">
                            <mxPoint x="889" y="210"/>
                            <mxPoint x="489" y="210"/>
                        </Array>
                        <mxPoint as="offset"/>
                    </mxGeometry>
                </mxCell>
                <mxCell id="LH6c0w0BI3tx8zZfQcEY-13" value="" style="edgeStyle=orthogonalEdgeStyle;rounded=0;orthogonalLoop=1;jettySize=auto;html=1;endArrow=open;endFill=0;strokeWidth=2;" edge="1" parent="1" source="LH6c0w0BI3tx8zZfQcEY-25" target="LH6c0w0BI3tx8zZfQcEY-24">
                    <mxGeometry relative="1" as="geometry"/>
                </mxCell>
                <mxCell id="LH6c0w0BI3tx8zZfQcEY-14" style="edgeStyle=orthogonalEdgeStyle;rounded=0;orthogonalLoop=1;jettySize=auto;html=1;endArrow=open;endFill=0;strokeWidth=2;startArrow=open;startFill=0;" edge="1" parent="1" source="LH6c0w0BI3tx8zZfQcEY-26" target="LH6c0w0BI3tx8zZfQcEY-27">
                    <mxGeometry relative="1" as="geometry">
                        <Array as="points">
                            <mxPoint x="608" y="500"/>
                            <mxPoint x="498" y="500"/>
                        </Array>
                    </mxGeometry>
                </mxCell>
                <mxCell id="LH6c0w0BI3tx8zZfQcEY-15" style="edgeStyle=orthogonalEdgeStyle;rounded=0;orthogonalLoop=1;jettySize=auto;html=1;endArrow=open;endFill=0;strokeWidth=2;startArrow=open;startFill=0;" edge="1" parent="1" source="LH6c0w0BI3tx8zZfQcEY-26" target="LH6c0w0BI3tx8zZfQcEY-28">
                    <mxGeometry relative="1" as="geometry">
                        <Array as="points">
                            <mxPoint x="654" y="500"/>
                            <mxPoint x="829" y="500"/>
                        </Array>
                    </mxGeometry>
                </mxCell>
                <mxCell id="LH6c0w0BI3tx8zZfQcEY-16" style="edgeStyle=orthogonalEdgeStyle;rounded=0;orthogonalLoop=1;jettySize=auto;html=1;endArrow=open;endFill=0;strokeWidth=2;" edge="1" parent="1" source="LH6c0w0BI3tx8zZfQcEY-27" target="LH6c0w0BI3tx8zZfQcEY-29">
                    <mxGeometry relative="1" as="geometry"/>
                </mxCell>
                <mxCell id="LH6c0w0BI3tx8zZfQcEY-17" value="Object" style="outlineConnect=0;fontColor=#232F3E;gradientColor=none;fillColor=#277116;strokeColor=none;dashed=0;verticalLabelPosition=bottom;verticalAlign=top;align=center;html=1;fontSize=12;fontStyle=0;aspect=fixed;pointerEvents=1;shape=mxgraph.aws4.object;labelBackgroundColor=#ffffff;" vertex="1" parent="1">
                    <mxGeometry x="60" y="80" width="78" height="78" as="geometry"/>
                </mxCell>
                <mxCell id="LH6c0w0BI3tx8zZfQcEY-18" value="Bucket" style="outlineConnect=0;fontColor=#232F3E;gradientColor=none;fillColor=#277116;strokeColor=none;dashed=0;verticalLabelPosition=bottom;verticalAlign=top;align=center;html=1;fontSize=12;fontStyle=0;aspect=fixed;pointerEvents=1;shape=mxgraph.aws4.bucket_with_objects;labelBackgroundColor=#ffffff;" vertex="1" parent="1">
                    <mxGeometry x="180" y="80" width="75" height="78" as="geometry"/>
                </mxCell>
                <mxCell id="LH6c0w0BI3tx8zZfQcEY-19" value="Bucket" style="outlineConnect=0;fontColor=#232F3E;gradientColor=none;fillColor=#277116;strokeColor=none;dashed=0;verticalLabelPosition=bottom;verticalAlign=top;align=center;html=1;fontSize=12;fontStyle=0;aspect=fixed;pointerEvents=1;shape=mxgraph.aws4.bucket_with_objects;labelBackgroundColor=#ffffff;" vertex="1" parent="1">
                    <mxGeometry x="990" y="80" width="75" height="78" as="geometry"/>
                </mxCell>
                <mxCell id="LH6c0w0BI3tx8zZfQcEY-20" value="AWS&lt;br&gt;CloudTrail" style="outlineConnect=0;fontColor=#232F3E;gradientColor=#F34482;gradientDirection=north;fillColor=#BC1356;strokeColor=#ffffff;dashed=0;verticalLabelPosition=bottom;verticalAlign=top;align=center;html=1;fontSize=12;fontStyle=0;aspect=fixed;shape=mxgraph.aws4.resourceIcon;resIcon=mxgraph.aws4.cloudtrail;labelBackgroundColor=#ffffff;" vertex="1" parent="1">
                    <mxGeometry x="340" y="250" width="78" height="78" as="geometry"/>
                </mxCell>
                <mxCell id="LH6c0w0BI3tx8zZfQcEY-21" value="Amazon&lt;br&gt;CloudWatch" style="outlineConnect=0;fontColor=#232F3E;gradientColor=#F34482;gradientDirection=north;fillColor=#BC1356;strokeColor=#ffffff;dashed=0;verticalLabelPosition=bottom;verticalAlign=top;align=center;html=1;fontSize=12;fontStyle=0;aspect=fixed;shape=mxgraph.aws4.resourceIcon;resIcon=mxgraph.aws4.cloudwatch;labelBackgroundColor=#ffffff;" vertex="1" parent="1">
                    <mxGeometry x="450" y="250" width="78" height="78" as="geometry"/>
                </mxCell>
                <mxCell id="LH6c0w0BI3tx8zZfQcEY-22" value="Amazon Simple&lt;br&gt;Notification Service&lt;br&gt;" style="outlineConnect=0;fontColor=#232F3E;gradientColor=#F34482;gradientDirection=north;fillColor=#BC1356;strokeColor=#ffffff;dashed=0;verticalLabelPosition=bottom;verticalAlign=top;align=center;html=1;fontSize=12;fontStyle=0;aspect=fixed;shape=mxgraph.aws4.resourceIcon;resIcon=mxgraph.aws4.sns;labelBackgroundColor=#ffffff;" vertex="1" parent="1">
                    <mxGeometry x="570" y="250" width="78" height="78" as="geometry"/>
                </mxCell>
                <mxCell id="LH6c0w0BI3tx8zZfQcEY-23" value="Amazon Simple&lt;br&gt;Queue Service&lt;br&gt;" style="outlineConnect=0;fontColor=#232F3E;gradientColor=#F34482;gradientDirection=north;fillColor=#BC1356;strokeColor=#ffffff;dashed=0;verticalLabelPosition=bottom;verticalAlign=top;align=center;html=1;fontSize=12;fontStyle=0;aspect=fixed;shape=mxgraph.aws4.resourceIcon;resIcon=mxgraph.aws4.sqs;labelBackgroundColor=#ffffff;" vertex="1" parent="1">
                    <mxGeometry x="693" y="250" width="78" height="78" as="geometry"/>
                </mxCell>
                <mxCell id="LH6c0w0BI3tx8zZfQcEY-24" value="Amazon&lt;br&gt;CloudWatch&lt;br&gt;" style="outlineConnect=0;fontColor=#232F3E;gradientColor=#F34482;gradientDirection=north;fillColor=#BC1356;strokeColor=#ffffff;dashed=0;verticalLabelPosition=bottom;verticalAlign=top;align=center;html=1;fontSize=12;fontStyle=0;aspect=fixed;shape=mxgraph.aws4.resourceIcon;resIcon=mxgraph.aws4.cloudwatch;labelBackgroundColor=#ffffff;" vertex="1" parent="1">
                    <mxGeometry x="850" y="250" width="78" height="78" as="geometry"/>
                </mxCell>
                <mxCell id="LH6c0w0BI3tx8zZfQcEY-25" value="AWS&lt;br&gt;CloudTrail" style="outlineConnect=0;fontColor=#232F3E;gradientColor=#F34482;gradientDirection=north;fillColor=#BC1356;strokeColor=#ffffff;dashed=0;verticalLabelPosition=bottom;verticalAlign=top;align=center;html=1;fontSize=12;fontStyle=0;aspect=fixed;shape=mxgraph.aws4.resourceIcon;resIcon=mxgraph.aws4.cloudtrail;labelBackgroundColor=#ffffff;" vertex="1" parent="1">
                    <mxGeometry x="988.5" y="250" width="78" height="78" as="geometry"/>
                </mxCell>
                <mxCell id="LH6c0w0BI3tx8zZfQcEY-26" value="AWS Lambda" style="outlineConnect=0;fontColor=#232F3E;gradientColor=#F78E04;gradientDirection=north;fillColor=#D05C17;strokeColor=#ffffff;dashed=0;verticalLabelPosition=bottom;verticalAlign=top;align=center;html=1;fontSize=12;fontStyle=0;aspect=fixed;shape=mxgraph.aws4.resourceIcon;resIcon=mxgraph.aws4.lambda;labelBackgroundColor=#ffffff;spacingTop=6;" vertex="1" parent="1">
                    <mxGeometry x="569" y="390" width="78" height="78" as="geometry"/>
                </mxCell>
                <mxCell id="LH6c0w0BI3tx8zZfQcEY-27" value="Amazon Kinesis&lt;br&gt;Data&amp;nbsp;Firehose" style="outlineConnect=0;fontColor=#232F3E;gradientColor=#945DF2;gradientDirection=north;fillColor=#5A30B5;strokeColor=#ffffff;dashed=0;verticalLabelPosition=bottom;verticalAlign=top;align=center;html=1;fontSize=12;fontStyle=0;aspect=fixed;shape=mxgraph.aws4.resourceIcon;resIcon=mxgraph.aws4.kinesis_data_firehose;labelBackgroundColor=#ffffff;" vertex="1" parent="1">
                    <mxGeometry x="459" y="530" width="78" height="78" as="geometry"/>
                </mxCell>
                <mxCell id="LH6c0w0BI3tx8zZfQcEY-28" value="Amazon&lt;br&gt;DynamoDB" style="outlineConnect=0;fontColor=#232F3E;gradientColor=#4D72F3;gradientDirection=north;fillColor=#3334B9;strokeColor=#ffffff;dashed=0;verticalLabelPosition=bottom;verticalAlign=top;align=center;html=1;fontSize=12;fontStyle=0;aspect=fixed;shape=mxgraph.aws4.resourceIcon;resIcon=mxgraph.aws4.dynamodb;labelBackgroundColor=#ffffff;" vertex="1" parent="1">
                    <mxGeometry x="680" y="530" width="78" height="78" as="geometry"/>
                </mxCell>
                <mxCell id="LH6c0w0BI3tx8zZfQcEY-29" value="Bucket" style="outlineConnect=0;fontColor=#232F3E;gradientColor=none;fillColor=#277116;strokeColor=none;dashed=0;verticalLabelPosition=bottom;verticalAlign=top;align=center;html=1;fontSize=12;fontStyle=0;aspect=fixed;pointerEvents=1;shape=mxgraph.aws4.bucket;labelBackgroundColor=#ffffff;" vertex="1" parent="1">
                    <mxGeometry x="90" y="530" width="75" height="78" as="geometry"/>
                </mxCell>
                <mxCell id="LH6c0w0BI3tx8zZfQcEY-30" value="" style="rounded=0;whiteSpace=wrap;html=1;labelBackgroundColor=none;fillColor=none;dashed=1;container=1;pointerEvents=0;collapsible=0;recursiveResize=0;" vertex="1" parent="1">
                    <mxGeometry x="830" y="230" width="250" height="430" as="geometry"/>
                </mxCell>
            </root>
        </mxGraphModel>
    </diagram>
</mxfile>